<mxfile host="Electron" modified="2024-06-30T02:13:12.520Z" agent="Mozilla/5.0 (Windows NT 10.0; Win64; x64) AppleWebKit/537.36 (KHTML, like Gecko) draw.io/24.5.1 Chrome/124.0.6367.207 Electron/30.0.6 Safari/537.36" etag="HNP_gnlExjcs2SuvAjXb" version="24.5.1" type="device" pages="3">
  <diagram name="Entidades" id="xI30XM8JuwD7gmCvTsga">
    <mxGraphModel dx="3703" dy="1747" grid="0" gridSize="10" guides="1" tooltips="1" connect="1" arrows="1" fold="1" page="0" pageScale="1" pageWidth="850" pageHeight="1100" math="0" shadow="0">
      <root>
        <mxCell id="0" />
        <mxCell id="ImmpMmd_PSmf4jzoIvcc-29" value="Tipo de Dominio" style="locked=1;" parent="0" visible="0" />
        <mxCell id="ImmpMmd_PSmf4jzoIvcc-30" value="CORE DOMAINS" style="rounded=1;whiteSpace=wrap;html=1;sketch=1;hachureGap=4;jiggle=2;curveFitting=1;fontFamily=Architects Daughter;fontSource=https%3A%2F%2Ffonts.googleapis.com%2Fcss%3Ffamily%3DArchitects%2BDaughter;verticalAlign=top;fontSize=21;fillColor=none;strokeColor=#0e8088;" vertex="1" parent="ImmpMmd_PSmf4jzoIvcc-29">
          <mxGeometry x="-947" y="-71" width="1152" height="1381" as="geometry" />
        </mxCell>
        <mxCell id="ImmpMmd_PSmf4jzoIvcc-31" value="GENERIC DOMAIN" style="rounded=1;whiteSpace=wrap;html=1;sketch=1;hachureGap=4;jiggle=2;curveFitting=1;fontFamily=Architects Daughter;fontSource=https%3A%2F%2Ffonts.googleapis.com%2Fcss%3Ffamily%3DArchitects%2BDaughter;verticalAlign=top;fontSize=21;fillColor=none;strokeColor=#0e8088;" vertex="1" parent="ImmpMmd_PSmf4jzoIvcc-29">
          <mxGeometry x="-1130" y="399" width="251" height="271" as="geometry" />
        </mxCell>
        <mxCell id="ImmpMmd_PSmf4jzoIvcc-43" value="EXTERNAL DOMAIN" style="rounded=1;whiteSpace=wrap;html=1;sketch=1;hachureGap=4;jiggle=2;curveFitting=1;fontFamily=Architects Daughter;fontSource=https%3A%2F%2Ffonts.googleapis.com%2Fcss%3Ffamily%3DArchitects%2BDaughter;verticalAlign=top;fontSize=21;fillColor=none;strokeColor=#0e8088;align=center;" vertex="1" parent="ImmpMmd_PSmf4jzoIvcc-29">
          <mxGeometry x="-216" y="1135" width="429" height="271" as="geometry" />
        </mxCell>
        <mxCell id="1" value="Objetos" style="" parent="0" />
        <mxCell id="WAuGadjzerKTHkQYb6Oh-2" value="&lt;div style=&quot;&quot;&gt;Sala&lt;/div&gt;&lt;div style=&quot;text-align: right;&quot;&gt;&lt;hr&gt;&lt;/div&gt;&lt;div style=&quot;&quot;&gt;IdSala&lt;/div&gt;&lt;div style=&quot;&quot;&gt;IdPrecificacao&lt;/div&gt;&lt;div style=&quot;&quot;&gt;&lt;span style=&quot;background-color: initial;&quot;&gt;NomeSala&lt;/span&gt;&lt;/div&gt;&lt;div style=&quot;text-align: center;&quot;&gt;QtdeAssentos&lt;/div&gt;&lt;div style=&quot;&quot;&gt;&lt;hr&gt;&lt;div style=&quot;&quot;&gt;&lt;span style=&quot;background-color: initial;&quot;&gt;Cadastrar&lt;/span&gt;&lt;/div&gt;&lt;/div&gt;&lt;div style=&quot;&quot;&gt;Atualizar&lt;/div&gt;" style="rounded=0;whiteSpace=wrap;html=1;fontFamily=Architects Daughter;fontSource=https%3A%2F%2Ffonts.googleapis.com%2Fcss%3Ffamily%3DArchitects%2BDaughter;sketch=1;curveFitting=1;jiggle=2;fillStyle=auto;align=left;spacingLeft=5;shadow=0;" parent="1" vertex="1">
          <mxGeometry x="-578" y="88" width="130" height="133" as="geometry" />
        </mxCell>
        <mxCell id="WAuGadjzerKTHkQYb6Oh-3" style="edgeStyle=none;curved=1;rounded=0;orthogonalLoop=1;jettySize=auto;html=1;entryX=0.5;entryY=1;entryDx=0;entryDy=0;fontFamily=Architects Daughter;fontSource=https%3A%2F%2Ffonts.googleapis.com%2Fcss%3Ffamily%3DArchitects%2BDaughter;fontSize=16;startSize=14;endArrow=open;endSize=14;sourcePerimeterSpacing=8;targetPerimeterSpacing=8;shadow=0;" parent="1" source="WAuGadjzerKTHkQYb6Oh-6" target="WAuGadjzerKTHkQYb6Oh-2" edge="1">
          <mxGeometry relative="1" as="geometry" />
        </mxCell>
        <mxCell id="WAuGadjzerKTHkQYb6Oh-4" style="edgeStyle=none;curved=1;rounded=0;orthogonalLoop=1;jettySize=auto;html=1;entryX=1;entryY=0.5;entryDx=0;entryDy=0;fontFamily=Architects Daughter;fontSource=https%3A%2F%2Ffonts.googleapis.com%2Fcss%3Ffamily%3DArchitects%2BDaughter;fontSize=16;startSize=14;endArrow=open;endSize=14;sourcePerimeterSpacing=8;targetPerimeterSpacing=8;shadow=0;" parent="1" source="WAuGadjzerKTHkQYb6Oh-6" edge="1">
          <mxGeometry relative="1" as="geometry">
            <mxPoint x="-648" y="244" as="targetPoint" />
          </mxGeometry>
        </mxCell>
        <mxCell id="WAuGadjzerKTHkQYb6Oh-5" style="edgeStyle=none;curved=1;rounded=0;orthogonalLoop=1;jettySize=auto;html=1;entryX=0;entryY=0.5;entryDx=0;entryDy=0;fontFamily=Architects Daughter;fontSource=https%3A%2F%2Ffonts.googleapis.com%2Fcss%3Ffamily%3DArchitects%2BDaughter;fontSize=16;startSize=14;endArrow=open;endSize=14;sourcePerimeterSpacing=8;targetPerimeterSpacing=8;exitX=1.008;exitY=0.395;exitDx=0;exitDy=0;exitPerimeter=0;shadow=0;" parent="1" source="WAuGadjzerKTHkQYb6Oh-6" target="WAuGadjzerKTHkQYb6Oh-7" edge="1">
          <mxGeometry relative="1" as="geometry" />
        </mxCell>
        <mxCell id="WAuGadjzerKTHkQYb6Oh-20" style="edgeStyle=none;curved=1;rounded=0;sketch=1;hachureGap=4;jiggle=2;curveFitting=1;orthogonalLoop=1;jettySize=auto;html=1;fontFamily=Architects Daughter;fontSource=https%3A%2F%2Ffonts.googleapis.com%2Fcss%3Ffamily%3DArchitects%2BDaughter;fontSize=16;startSize=14;endArrow=open;endSize=14;sourcePerimeterSpacing=8;targetPerimeterSpacing=8;exitX=1;exitY=0.25;exitDx=0;exitDy=0;entryX=-0.019;entryY=0.086;entryDx=0;entryDy=0;entryPerimeter=0;shadow=0;" parent="1" source="ImmpMmd_PSmf4jzoIvcc-34" target="WAuGadjzerKTHkQYb6Oh-23" edge="1">
          <mxGeometry relative="1" as="geometry">
            <mxPoint x="-236" y="773" as="targetPoint" />
            <Array as="points">
              <mxPoint x="-77" y="701" />
            </Array>
          </mxGeometry>
        </mxCell>
        <mxCell id="WAuGadjzerKTHkQYb6Oh-6" value="&lt;div style=&quot;&quot;&gt;&lt;span style=&quot;background-color: initial;&quot;&gt;Sessao&lt;/span&gt;&lt;/div&gt;&lt;div style=&quot;&quot;&gt;&lt;hr&gt;&lt;/div&gt;&lt;div style=&quot;&quot;&gt;&lt;span style=&quot;background-color: initial;&quot;&gt;idSessao&lt;/span&gt;&lt;/div&gt;&lt;div style=&quot;&quot;&gt;&lt;span style=&quot;background-color: initial;&quot;&gt;idSala&lt;/span&gt;&lt;br&gt;&lt;/div&gt;&lt;div&gt;idFilme&lt;/div&gt;&lt;div&gt;&lt;div&gt;&lt;span style=&quot;background-color: initial;&quot;&gt;idPrecificacao&lt;/span&gt;&lt;/div&gt;&lt;/div&gt;" style="rounded=0;whiteSpace=wrap;html=1;fontFamily=Architects Daughter;fontSource=https%3A%2F%2Ffonts.googleapis.com%2Fcss%3Ffamily%3DArchitects%2BDaughter;sketch=1;curveFitting=1;jiggle=2;fillStyle=auto;align=left;shadow=0;spacingLeft=8;" parent="1" vertex="1">
          <mxGeometry x="-608" y="292" width="151" height="174" as="geometry" />
        </mxCell>
        <mxCell id="WAuGadjzerKTHkQYb6Oh-29" value="" style="edgeStyle=none;curved=1;rounded=0;sketch=1;hachureGap=4;jiggle=2;curveFitting=1;orthogonalLoop=1;jettySize=auto;html=1;fontFamily=Architects Daughter;fontSource=https%3A%2F%2Ffonts.googleapis.com%2Fcss%3Ffamily%3DArchitects%2BDaughter;fontSize=16;startSize=14;endArrow=open;endSize=14;sourcePerimeterSpacing=8;targetPerimeterSpacing=8;shadow=0;" parent="1" source="WAuGadjzerKTHkQYb6Oh-7" target="WAuGadjzerKTHkQYb6Oh-28" edge="1">
          <mxGeometry relative="1" as="geometry" />
        </mxCell>
        <mxCell id="WAuGadjzerKTHkQYb6Oh-7" value="&lt;div style=&quot;text-align: center;&quot;&gt;&lt;span style=&quot;background-color: initial;&quot;&gt;PrecificacaoHorario&lt;/span&gt;&lt;/div&gt;&lt;div style=&quot;text-align: center;&quot;&gt;&lt;hr&gt;&lt;/div&gt;&lt;div style=&quot;&quot;&gt;&lt;span style=&quot;background-color: initial;&quot;&gt;IdPrecificacao&lt;/span&gt;&lt;/div&gt;&lt;div style=&quot;&quot;&gt;&lt;span style=&quot;background-color: initial;&quot;&gt;idTipoPrecificacao&lt;/span&gt;&lt;span style=&quot;background-color: initial;&quot;&gt;Valor&lt;/span&gt;&lt;br&gt;&lt;/div&gt;&lt;div style=&quot;&quot;&gt;&lt;div&gt;&lt;span style=&quot;background-color: initial;&quot;&gt;DataInicio&lt;/span&gt;&lt;br&gt;&lt;/div&gt;&lt;div&gt;HoraInicio&lt;/div&gt;&lt;/div&gt;&lt;div style=&quot;&quot;&gt;&lt;span style=&quot;background-color: initial;&quot;&gt;Valor&lt;/span&gt;&lt;/div&gt;" style="rounded=0;whiteSpace=wrap;html=1;fontFamily=Architects Daughter;fontSource=https%3A%2F%2Ffonts.googleapis.com%2Fcss%3Ffamily%3DArchitects%2BDaughter;sketch=1;curveFitting=1;jiggle=2;fillStyle=auto;align=left;spacingLeft=6;shadow=0;" parent="1" vertex="1">
          <mxGeometry x="-364" y="90" width="230" height="133.5" as="geometry" />
        </mxCell>
        <mxCell id="WAuGadjzerKTHkQYb6Oh-8" value="&lt;div style=&quot;text-align: center;&quot;&gt;&lt;span style=&quot;background-color: initial;&quot;&gt;Cliente&lt;/span&gt;&lt;/div&gt;&lt;div style=&quot;&quot;&gt;&lt;span style=&quot;background-color: initial;&quot;&gt;idCliente&lt;/span&gt;&lt;/div&gt;&lt;div&gt;Nome&lt;/div&gt;&lt;div&gt;DataNascimento&lt;/div&gt;&lt;div&gt;&lt;br&gt;&lt;/div&gt;" style="rounded=0;whiteSpace=wrap;html=1;fontFamily=Architects Daughter;fontSource=https%3A%2F%2Ffonts.googleapis.com%2Fcss%3Ffamily%3DArchitects%2BDaughter;sketch=1;curveFitting=1;jiggle=2;fillStyle=auto;align=left;gradientColor=none;shadow=0;" parent="1" vertex="1">
          <mxGeometry x="-1025" y="572" width="150" height="80" as="geometry" />
        </mxCell>
        <mxCell id="WAuGadjzerKTHkQYb6Oh-9" style="edgeStyle=none;curved=1;rounded=0;orthogonalLoop=1;jettySize=auto;html=1;fontFamily=Architects Daughter;fontSource=https%3A%2F%2Ffonts.googleapis.com%2Fcss%3Ffamily%3DArchitects%2BDaughter;fontSize=16;startSize=14;endArrow=open;endSize=14;sourcePerimeterSpacing=8;targetPerimeterSpacing=8;shadow=0;" parent="1" source="WAuGadjzerKTHkQYb6Oh-12" target="WAuGadjzerKTHkQYb6Oh-8" edge="1">
          <mxGeometry relative="1" as="geometry" />
        </mxCell>
        <mxCell id="WAuGadjzerKTHkQYb6Oh-10" style="edgeStyle=none;curved=1;rounded=0;orthogonalLoop=1;jettySize=auto;html=1;fontFamily=Architects Daughter;fontSource=https%3A%2F%2Ffonts.googleapis.com%2Fcss%3Ffamily%3DArchitects%2BDaughter;fontSize=16;startSize=14;endArrow=open;endSize=14;sourcePerimeterSpacing=8;targetPerimeterSpacing=8;exitX=0.395;exitY=0.013;exitDx=0;exitDy=0;exitPerimeter=0;shadow=0;" parent="1" source="WAuGadjzerKTHkQYb6Oh-18" target="WAuGadjzerKTHkQYb6Oh-6" edge="1">
          <mxGeometry relative="1" as="geometry">
            <mxPoint x="-445" y="583" as="sourcePoint" />
            <mxPoint x="-425.94299999999976" y="461.1879999999999" as="targetPoint" />
            <Array as="points">
              <mxPoint x="-292" y="367" />
            </Array>
          </mxGeometry>
        </mxCell>
        <mxCell id="WAuGadjzerKTHkQYb6Oh-11" style="edgeStyle=none;curved=1;rounded=0;orthogonalLoop=1;jettySize=auto;html=1;fontFamily=Architects Daughter;fontSource=https%3A%2F%2Ffonts.googleapis.com%2Fcss%3Ffamily%3DArchitects%2BDaughter;fontSize=16;startSize=14;endArrow=open;endSize=14;sourcePerimeterSpacing=8;targetPerimeterSpacing=8;shadow=0;" parent="1" source="WAuGadjzerKTHkQYb6Oh-12" target="WAuGadjzerKTHkQYb6Oh-15" edge="1">
          <mxGeometry relative="1" as="geometry" />
        </mxCell>
        <mxCell id="WAuGadjzerKTHkQYb6Oh-33" style="edgeStyle=none;curved=1;rounded=0;sketch=1;hachureGap=4;jiggle=2;curveFitting=1;orthogonalLoop=1;jettySize=auto;html=1;fontFamily=Architects Daughter;fontSource=https%3A%2F%2Ffonts.googleapis.com%2Fcss%3Ffamily%3DArchitects%2BDaughter;fontSize=16;startSize=14;endArrow=open;endSize=14;sourcePerimeterSpacing=8;targetPerimeterSpacing=8;shadow=0;" parent="1" source="WAuGadjzerKTHkQYb6Oh-12" target="WAuGadjzerKTHkQYb6Oh-34" edge="1">
          <mxGeometry relative="1" as="geometry">
            <mxPoint x="-183.99996512276766" y="1059.4286237444198" as="targetPoint" />
            <Array as="points">
              <mxPoint x="-381" y="919" />
            </Array>
          </mxGeometry>
        </mxCell>
        <mxCell id="WAuGadjzerKTHkQYb6Oh-12" value="&lt;div style=&quot;&quot;&gt;&lt;span style=&quot;background-color: initial;&quot;&gt;Carrinho&lt;/span&gt;&lt;/div&gt;&lt;div style=&quot;&quot;&gt;&lt;hr&gt;&lt;/div&gt;&lt;div style=&quot;&quot;&gt;&lt;span style=&quot;background-color: initial;&quot;&gt;idCarrinho&lt;/span&gt;&lt;/div&gt;&lt;div style=&quot;&quot;&gt;&lt;span style=&quot;background-color: initial;&quot;&gt;idCliente&lt;/span&gt;&lt;br&gt;&lt;/div&gt;&lt;div&gt;&lt;span style=&quot;background-color: initial;&quot;&gt;IdStatusCarrinho&lt;/span&gt;&lt;br&gt;&lt;/div&gt;&lt;div&gt;&lt;br&gt;&lt;hr&gt;IncluirItemCarritnho&lt;/div&gt;&lt;div&gt;ObterTotal&lt;br&gt;&lt;/div&gt;" style="rounded=0;whiteSpace=wrap;html=1;fontFamily=Architects Daughter;fontSource=https%3A%2F%2Ffonts.googleapis.com%2Fcss%3Ffamily%3DArchitects%2BDaughter;sketch=1;curveFitting=1;jiggle=2;fillStyle=auto;align=left;spacingLeft=4;shadow=0;" parent="1" vertex="1">
          <mxGeometry x="-595" y="614" width="130" height="170" as="geometry" />
        </mxCell>
        <mxCell id="WAuGadjzerKTHkQYb6Oh-15" value="&lt;div style=&quot;&quot;&gt;&lt;span style=&quot;background-color: initial;&quot;&gt;StatusCarrinho&lt;/span&gt;&lt;/div&gt;&lt;div style=&quot;&quot;&gt;&lt;hr&gt;&lt;/div&gt;&lt;div style=&quot;&quot;&gt;IdStatusCarrinho&lt;/div&gt;&lt;div style=&quot;&quot;&gt;NomeStatus&amp;nbsp;&lt;/div&gt;&lt;div style=&quot;&quot;&gt;&lt;br&gt;&lt;/div&gt;&lt;div style=&quot;&quot;&gt;Aberto, Fechado, Abandonado&lt;/div&gt;" style="rounded=0;whiteSpace=wrap;html=1;fontFamily=Architects Daughter;fontSource=https%3A%2F%2Ffonts.googleapis.com%2Fcss%3Ffamily%3DArchitects%2BDaughter;sketch=1;curveFitting=1;jiggle=2;fillStyle=auto;align=left;spacingLeft=5;shadow=0;" parent="1" vertex="1">
          <mxGeometry x="-860.5" y="851" width="315" height="125" as="geometry" />
        </mxCell>
        <mxCell id="WAuGadjzerKTHkQYb6Oh-16" value="Filme" style="swimlane;childLayout=stackLayout;horizontal=1;startSize=50;horizontalStack=0;rounded=1;fontSize=14;fontStyle=0;strokeWidth=2;resizeParent=0;resizeLast=1;shadow=0;dashed=0;align=center;arcSize=4;whiteSpace=wrap;html=1;sketch=1;hachureGap=4;jiggle=2;curveFitting=1;fontFamily=Architects Daughter;fontSource=https%3A%2F%2Ffonts.googleapis.com%2Fcss%3Ffamily%3DArchitects%2BDaughter;fillColor=default;glass=0;" parent="1" vertex="1">
          <mxGeometry x="-813" y="151" width="160" height="165" as="geometry">
            <mxRectangle x="-813" y="151" width="67" height="50" as="alternateBounds" />
          </mxGeometry>
        </mxCell>
        <mxCell id="WAuGadjzerKTHkQYb6Oh-17" value="IdFilme&lt;div&gt;Titulo&lt;/div&gt;&lt;div&gt;Sinopse&lt;/div&gt;&lt;div&gt;&lt;hr&gt;Cadastrar&lt;/div&gt;&lt;div&gt;Atualizar&lt;/div&gt;" style="align=left;strokeColor=none;fillColor=none;spacingLeft=4;fontSize=12;verticalAlign=top;resizable=0;rotatable=0;part=1;html=1;sketch=1;hachureGap=4;jiggle=2;curveFitting=1;fontFamily=Architects Daughter;fontSource=https%3A%2F%2Ffonts.googleapis.com%2Fcss%3Ffamily%3DArchitects%2BDaughter;shadow=0;" parent="WAuGadjzerKTHkQYb6Oh-16" vertex="1">
          <mxGeometry y="50" width="160" height="115" as="geometry" />
        </mxCell>
        <mxCell id="WAuGadjzerKTHkQYb6Oh-18" value="Ingresso" style="swimlane;childLayout=stackLayout;horizontal=1;startSize=50;horizontalStack=0;rounded=1;fontSize=14;fontStyle=0;strokeWidth=2;resizeParent=0;resizeLast=1;shadow=0;dashed=0;align=center;arcSize=4;whiteSpace=wrap;html=1;sketch=1;hachureGap=4;jiggle=2;curveFitting=1;fontFamily=Architects Daughter;fontSource=https%3A%2F%2Ffonts.googleapis.com%2Fcss%3Ffamily%3DArchitects%2BDaughter;" parent="1" vertex="1">
          <mxGeometry x="-239" y="350" width="160" height="216" as="geometry" />
        </mxCell>
        <mxCell id="WAuGadjzerKTHkQYb6Oh-19" value="&lt;div&gt;IdIngresso&lt;/div&gt;&lt;div&gt;&lt;span style=&quot;background-color: initial;&quot;&gt;DataCriacao&lt;/span&gt;&lt;/div&gt;&lt;div&gt;&lt;div style=&quot;text-wrap: wrap;&quot;&gt;&lt;span style=&quot;background-color: initial;&quot;&gt;IdSessao&lt;/span&gt;&lt;br&gt;&lt;/div&gt;&lt;div style=&quot;text-wrap: wrap;&quot;&gt;&lt;br&gt;&lt;/div&gt;&lt;/div&gt;&lt;div&gt;&lt;hr&gt;&lt;/div&gt;&lt;div&gt;&lt;span style=&quot;background-color: initial;&quot;&gt;&lt;br&gt;&lt;/span&gt;&lt;/div&gt;&lt;div&gt;&lt;span style=&quot;background-color: initial;&quot;&gt;Cadastrar&lt;/span&gt;&lt;br&gt;&lt;/div&gt;&lt;div&gt;&lt;br&gt;&lt;/div&gt;" style="align=left;strokeColor=none;fillColor=none;spacingLeft=4;fontSize=12;verticalAlign=top;resizable=0;rotatable=0;part=1;html=1;sketch=1;hachureGap=4;jiggle=2;curveFitting=1;fontFamily=Architects Daughter;fontSource=https%3A%2F%2Ffonts.googleapis.com%2Fcss%3Ffamily%3DArchitects%2BDaughter;shadow=0;" parent="WAuGadjzerKTHkQYb6Oh-18" vertex="1">
          <mxGeometry y="50" width="160" height="166" as="geometry" />
        </mxCell>
        <mxCell id="WAuGadjzerKTHkQYb6Oh-22" value="Produto" style="swimlane;childLayout=stackLayout;horizontal=1;startSize=50;horizontalStack=0;rounded=1;fontSize=14;fontStyle=0;strokeWidth=2;resizeParent=0;resizeLast=1;shadow=0;dashed=0;align=center;arcSize=4;whiteSpace=wrap;html=1;sketch=1;hachureGap=4;jiggle=2;curveFitting=1;fontFamily=Architects Daughter;fontSource=https%3A%2F%2Ffonts.googleapis.com%2Fcss%3Ffamily%3DArchitects%2BDaughter;" parent="1" vertex="1">
          <mxGeometry x="32" y="310" width="160" height="216" as="geometry" />
        </mxCell>
        <mxCell id="WAuGadjzerKTHkQYb6Oh-23" value="&lt;div&gt;IdProduto&lt;/div&gt;&lt;div&gt;&lt;span style=&quot;background-color: initial;&quot;&gt;DataInclusaoProduto&lt;/span&gt;&lt;/div&gt;&lt;div&gt;&lt;div style=&quot;text-wrap: wrap;&quot;&gt;&lt;span style=&quot;background-color: initial;&quot;&gt;TipoProduto&lt;/span&gt;&lt;br&gt;&lt;/div&gt;&lt;div style=&quot;text-wrap: wrap;&quot;&gt;&lt;span style=&quot;background-color: initial;&quot;&gt;Nome&lt;/span&gt;&lt;/div&gt;&lt;div style=&quot;text-wrap: wrap;&quot;&gt;&lt;span style=&quot;background-color: initial;&quot;&gt;Descricao&lt;/span&gt;&lt;/div&gt;&lt;div style=&quot;text-wrap: wrap;&quot;&gt;&lt;br&gt;&lt;/div&gt;&lt;/div&gt;&lt;div&gt;&lt;hr&gt;&lt;/div&gt;&lt;div&gt;&lt;span style=&quot;background-color: initial;&quot;&gt;&lt;br&gt;&lt;/span&gt;&lt;/div&gt;&lt;div&gt;&lt;span style=&quot;background-color: initial;&quot;&gt;Cadastrar&lt;/span&gt;&lt;br&gt;&lt;/div&gt;&lt;div&gt;&lt;br&gt;&lt;/div&gt;" style="align=left;strokeColor=none;fillColor=none;spacingLeft=4;fontSize=12;verticalAlign=top;resizable=0;rotatable=0;part=1;html=1;sketch=1;hachureGap=4;jiggle=2;curveFitting=1;fontFamily=Architects Daughter;fontSource=https%3A%2F%2Ffonts.googleapis.com%2Fcss%3Ffamily%3DArchitects%2BDaughter;shadow=0;" parent="WAuGadjzerKTHkQYb6Oh-22" vertex="1">
          <mxGeometry y="50" width="160" height="166" as="geometry" />
        </mxCell>
        <mxCell id="WAuGadjzerKTHkQYb6Oh-24" style="edgeStyle=none;curved=1;rounded=0;sketch=1;hachureGap=4;jiggle=2;curveFitting=1;orthogonalLoop=1;jettySize=auto;html=1;entryX=0.016;entryY=0.388;entryDx=0;entryDy=0;entryPerimeter=0;fontFamily=Architects Daughter;fontSource=https%3A%2F%2Ffonts.googleapis.com%2Fcss%3Ffamily%3DArchitects%2BDaughter;fontSize=16;startSize=14;endArrow=open;endSize=14;sourcePerimeterSpacing=8;targetPerimeterSpacing=8;shadow=0;exitX=0.75;exitY=0;exitDx=0;exitDy=0;" parent="1" source="ImmpMmd_PSmf4jzoIvcc-34" target="WAuGadjzerKTHkQYb6Oh-19" edge="1">
          <mxGeometry relative="1" as="geometry">
            <Array as="points">
              <mxPoint x="-299" y="611" />
            </Array>
          </mxGeometry>
        </mxCell>
        <mxCell id="WAuGadjzerKTHkQYb6Oh-26" style="edgeStyle=none;curved=1;rounded=0;sketch=1;hachureGap=4;jiggle=2;curveFitting=1;orthogonalLoop=1;jettySize=auto;html=1;entryX=1;entryY=0.25;entryDx=0;entryDy=0;fontFamily=Architects Daughter;fontSource=https%3A%2F%2Ffonts.googleapis.com%2Fcss%3Ffamily%3DArchitects%2BDaughter;fontSize=16;startSize=14;endArrow=open;endSize=14;sourcePerimeterSpacing=8;targetPerimeterSpacing=8;shadow=0;" parent="1" source="WAuGadjzerKTHkQYb6Oh-25" target="WAuGadjzerKTHkQYb6Oh-23" edge="1">
          <mxGeometry relative="1" as="geometry" />
        </mxCell>
        <mxCell id="WAuGadjzerKTHkQYb6Oh-25" value="Para Comprar Pìpoca ou outros produtos pelo site é necessário ter um ingresso?&lt;br&gt;&lt;br&gt;Um Ingresso&amp;nbsp; é um Produto?" style="html=1;dashed=0;whiteSpace=wrap;sketch=1;hachureGap=4;jiggle=2;curveFitting=1;fontFamily=Architects Daughter;fontSource=https%3A%2F%2Ffonts.googleapis.com%2Fcss%3Ffamily%3DArchitects%2BDaughter;align=left;shadow=0;" parent="1" vertex="1">
          <mxGeometry x="285" y="418" width="264" height="119" as="geometry" />
        </mxCell>
        <mxCell id="WAuGadjzerKTHkQYb6Oh-31" value="" style="edgeStyle=none;curved=1;rounded=0;sketch=1;hachureGap=4;jiggle=2;curveFitting=1;orthogonalLoop=1;jettySize=auto;html=1;fontFamily=Architects Daughter;fontSource=https%3A%2F%2Ffonts.googleapis.com%2Fcss%3Ffamily%3DArchitects%2BDaughter;fontSize=16;startSize=14;endArrow=open;endSize=14;sourcePerimeterSpacing=8;targetPerimeterSpacing=8;shadow=0;" parent="1" source="WAuGadjzerKTHkQYb6Oh-28" target="WAuGadjzerKTHkQYb6Oh-30" edge="1">
          <mxGeometry relative="1" as="geometry" />
        </mxCell>
        <mxCell id="WAuGadjzerKTHkQYb6Oh-28" value="&lt;div style=&quot;text-align: center;&quot;&gt;&lt;span style=&quot;background-color: initial;&quot;&gt;TipoPrecificao&lt;/span&gt;&lt;/div&gt;&lt;div style=&quot;text-align: center;&quot;&gt;&lt;hr&gt;&lt;/div&gt;&lt;div style=&quot;&quot;&gt;&lt;span style=&quot;background-color: initial;&quot;&gt;idTipoPrecificacao&lt;/span&gt;&lt;/div&gt;&lt;div style=&quot;&quot;&gt;Nome&lt;/div&gt;" style="rounded=0;whiteSpace=wrap;html=1;fontFamily=Architects Daughter;fontSource=https%3A%2F%2Ffonts.googleapis.com%2Fcss%3Ffamily%3DArchitects%2BDaughter;sketch=1;curveFitting=1;jiggle=2;fillStyle=auto;align=left;spacingLeft=6;shadow=0;" parent="1" vertex="1">
          <mxGeometry x="-79" y="94" width="230" height="90.5" as="geometry" />
        </mxCell>
        <mxCell id="WAuGadjzerKTHkQYb6Oh-30" value="Tipos,: DIa, Matine e Notuno" style="whiteSpace=wrap;html=1;fontFamily=Architects Daughter;align=left;rounded=0;fontSource=https%3A%2F%2Ffonts.googleapis.com%2Fcss%3Ffamily%3DArchitects%2BDaughter;sketch=1;curveFitting=1;jiggle=2;fillStyle=auto;spacingLeft=6;shadow=0;" parent="1" vertex="1">
          <mxGeometry x="-39" y="-50" width="120" height="60" as="geometry" />
        </mxCell>
        <mxCell id="WAuGadjzerKTHkQYb6Oh-38" style="edgeStyle=none;curved=1;rounded=0;sketch=1;hachureGap=4;jiggle=2;curveFitting=1;orthogonalLoop=1;jettySize=auto;html=1;fontFamily=Architects Daughter;fontSource=https%3A%2F%2Ffonts.googleapis.com%2Fcss%3Ffamily%3DArchitects%2BDaughter;fontSize=16;startSize=14;endArrow=open;endSize=14;sourcePerimeterSpacing=8;targetPerimeterSpacing=8;shadow=0;" parent="1" source="WAuGadjzerKTHkQYb6Oh-34" target="WAuGadjzerKTHkQYb6Oh-37" edge="1">
          <mxGeometry relative="1" as="geometry" />
        </mxCell>
        <mxCell id="ImmpMmd_PSmf4jzoIvcc-42" value="" style="edgeStyle=none;curved=1;rounded=0;sketch=1;hachureGap=4;jiggle=2;curveFitting=1;orthogonalLoop=1;jettySize=auto;html=1;fontFamily=Architects Daughter;fontSource=https%3A%2F%2Ffonts.googleapis.com%2Fcss%3Ffamily%3DArchitects%2BDaughter;fontSize=16;startSize=14;endArrow=open;endSize=14;sourcePerimeterSpacing=8;targetPerimeterSpacing=8;" edge="1" parent="1" source="WAuGadjzerKTHkQYb6Oh-34" target="ImmpMmd_PSmf4jzoIvcc-41">
          <mxGeometry relative="1" as="geometry" />
        </mxCell>
        <mxCell id="WAuGadjzerKTHkQYb6Oh-34" value="Pedido&lt;div&gt;IdCarrinho&lt;/div&gt;&lt;div&gt;IdStatusPedido&lt;/div&gt;&lt;div&gt;&lt;br&gt;&lt;/div&gt;" style="html=1;dashed=0;whiteSpace=wrap;sketch=1;hachureGap=4;jiggle=2;curveFitting=1;fontFamily=Architects Daughter;fontSource=https%3A%2F%2Ffonts.googleapis.com%2Fcss%3Ffamily%3DArchitects%2BDaughter;align=left;spacingLeft=6;shadow=0;" parent="1" vertex="1">
          <mxGeometry x="-260" y="976" width="175" height="92" as="geometry" />
        </mxCell>
        <mxCell id="WAuGadjzerKTHkQYb6Oh-36" style="edgeStyle=none;curved=1;rounded=0;sketch=1;hachureGap=4;jiggle=2;curveFitting=1;orthogonalLoop=1;jettySize=auto;html=1;fontFamily=Architects Daughter;fontSource=https%3A%2F%2Ffonts.googleapis.com%2Fcss%3Ffamily%3DArchitects%2BDaughter;fontSize=16;startSize=14;endArrow=open;endSize=14;sourcePerimeterSpacing=8;targetPerimeterSpacing=8;shadow=0;" parent="1" source="WAuGadjzerKTHkQYb6Oh-35" edge="1">
          <mxGeometry relative="1" as="geometry">
            <mxPoint x="-81.60003662109375" y="1022.0000610351562" as="targetPoint" />
          </mxGeometry>
        </mxCell>
        <mxCell id="WAuGadjzerKTHkQYb6Oh-35" value="O Pedido é pedido de processamento da requisiação, que pode falhar, indicar overbooking, executar retentativa de pagamento se necessário" style="html=1;dashed=0;whiteSpace=wrap;sketch=1;hachureGap=4;jiggle=2;curveFitting=1;fontFamily=Architects Daughter;fontSource=https%3A%2F%2Ffonts.googleapis.com%2Fcss%3Ffamily%3DArchitects%2BDaughter;shadow=0;" parent="1" vertex="1">
          <mxGeometry x="13" y="934" width="214" height="169" as="geometry" />
        </mxCell>
        <mxCell id="WAuGadjzerKTHkQYb6Oh-37" value="&lt;div style=&quot;&quot;&gt;&lt;span style=&quot;background-color: initial;&quot;&gt;StatusPedido&lt;/span&gt;&lt;/div&gt;&lt;div style=&quot;&quot;&gt;&lt;hr&gt;&lt;/div&gt;&lt;div style=&quot;&quot;&gt;IdStatusPedido&lt;br&gt;Nome&lt;/div&gt;&lt;div style=&quot;&quot;&gt;&lt;hr&gt;&lt;/div&gt;&lt;div style=&quot;&quot;&gt;&lt;ul&gt;&lt;li&gt;Enviado&lt;/li&gt;&lt;li&gt;Em Processamento&lt;/li&gt;&lt;li&gt;Sucesso&lt;/li&gt;&lt;li&gt;PagamentoPendente&lt;/li&gt;&lt;li&gt;PagamentoConluido&lt;/li&gt;&lt;li&gt;Erro&lt;/li&gt;&lt;/ul&gt;&lt;/div&gt;&lt;div&gt;&lt;br&gt;&lt;/div&gt;" style="rounded=0;whiteSpace=wrap;html=1;fontFamily=Architects Daughter;fontSource=https%3A%2F%2Ffonts.googleapis.com%2Fcss%3Ffamily%3DArchitects%2BDaughter;sketch=1;curveFitting=1;jiggle=2;fillStyle=auto;align=left;spacingLeft=6;shadow=0;" parent="1" vertex="1">
          <mxGeometry x="-590" y="1060" width="209" height="213" as="geometry" />
        </mxCell>
        <mxCell id="ImmpMmd_PSmf4jzoIvcc-35" style="edgeStyle=none;curved=1;rounded=0;sketch=1;hachureGap=4;jiggle=2;curveFitting=1;orthogonalLoop=1;jettySize=auto;html=1;fontFamily=Architects Daughter;fontSource=https%3A%2F%2Ffonts.googleapis.com%2Fcss%3Ffamily%3DArchitects%2BDaughter;fontSize=16;startSize=14;endArrow=open;endSize=14;sourcePerimeterSpacing=8;targetPerimeterSpacing=8;" edge="1" parent="1" source="ImmpMmd_PSmf4jzoIvcc-34" target="WAuGadjzerKTHkQYb6Oh-12">
          <mxGeometry relative="1" as="geometry" />
        </mxCell>
        <mxCell id="ImmpMmd_PSmf4jzoIvcc-37" value="" style="edgeStyle=none;curved=1;rounded=0;sketch=1;hachureGap=4;jiggle=2;curveFitting=1;orthogonalLoop=1;jettySize=auto;html=1;fontFamily=Architects Daughter;fontSource=https%3A%2F%2Ffonts.googleapis.com%2Fcss%3Ffamily%3DArchitects%2BDaughter;fontSize=16;startSize=14;endArrow=open;endSize=14;sourcePerimeterSpacing=8;targetPerimeterSpacing=8;" edge="1" parent="1" source="ImmpMmd_PSmf4jzoIvcc-34" target="ImmpMmd_PSmf4jzoIvcc-36">
          <mxGeometry relative="1" as="geometry" />
        </mxCell>
        <mxCell id="ImmpMmd_PSmf4jzoIvcc-34" value="&lt;div style=&quot;&quot;&gt;&lt;span style=&quot;background-color: initial;&quot;&gt;ItemCarrinho&lt;/span&gt;&lt;/div&gt;&lt;div style=&quot;&quot;&gt;&lt;hr&gt;&lt;/div&gt;&lt;div style=&quot;&quot;&gt;&lt;span style=&quot;background-color: initial;&quot;&gt;idItem&lt;/span&gt;&lt;br&gt;&lt;/div&gt;&lt;div style=&quot;&quot;&gt;idCarrinho&lt;span style=&quot;background-color: initial;&quot;&gt;&lt;br&gt;&lt;/span&gt;&lt;/div&gt;&lt;div&gt;&lt;span style=&quot;background-color: initial;&quot;&gt;IdIngresso&lt;/span&gt;&lt;br&gt;&lt;/div&gt;&lt;div&gt;StatusItem&lt;br&gt;&lt;/div&gt;&lt;div&gt;IdProdutos&lt;br&gt;&lt;hr&gt;&lt;/div&gt;&lt;div&gt;&lt;br&gt;&lt;/div&gt;" style="rounded=0;whiteSpace=wrap;html=1;fontFamily=Architects Daughter;fontSource=https%3A%2F%2Ffonts.googleapis.com%2Fcss%3Ffamily%3DArchitects%2BDaughter;sketch=1;curveFitting=1;jiggle=2;fillStyle=auto;align=left;spacingLeft=4;shadow=0;" vertex="1" parent="1">
          <mxGeometry x="-367" y="699" width="130" height="170" as="geometry" />
        </mxCell>
        <mxCell id="ImmpMmd_PSmf4jzoIvcc-36" value="&lt;div style=&quot;&quot;&gt;&lt;span style=&quot;background-color: initial;&quot;&gt;StatusItemCarrinho&lt;/span&gt;&lt;/div&gt;&lt;div style=&quot;&quot;&gt;&lt;hr&gt;&lt;/div&gt;&lt;div style=&quot;&quot;&gt;&lt;span style=&quot;background-color: initial;&quot;&gt;IdStatus&lt;/span&gt;&lt;br&gt;&lt;/div&gt;&lt;div style=&quot;&quot;&gt;NomeStatus&lt;/div&gt;&lt;div&gt;&lt;hr&gt;DentroCarrinho&lt;/div&gt;&lt;div&gt;ForaCarrinho&lt;/div&gt;&lt;div&gt;&lt;br&gt;&lt;/div&gt;" style="rounded=0;whiteSpace=wrap;html=1;fontFamily=Architects Daughter;fontSource=https%3A%2F%2Ffonts.googleapis.com%2Fcss%3Ffamily%3DArchitects%2BDaughter;sketch=1;curveFitting=1;jiggle=2;fillStyle=auto;align=left;spacingLeft=4;shadow=0;" vertex="1" parent="1">
          <mxGeometry x="-121" y="738" width="130" height="170" as="geometry" />
        </mxCell>
        <mxCell id="ImmpMmd_PSmf4jzoIvcc-41" value="&lt;div&gt;TransacaoPagamento&lt;hr&gt;&lt;div&gt;IdTransacao&lt;/div&gt;&lt;div&gt;IdCarrinho&lt;/div&gt;&lt;div&gt;IdStatusTransacao&lt;/div&gt;&lt;div&gt;&lt;br&gt;&lt;/div&gt;&lt;/div&gt;" style="html=1;dashed=0;whiteSpace=wrap;sketch=1;hachureGap=4;jiggle=2;curveFitting=1;fontFamily=Architects Daughter;fontSource=https%3A%2F%2Ffonts.googleapis.com%2Fcss%3Ffamily%3DArchitects%2BDaughter;align=left;spacingLeft=6;shadow=0;" vertex="1" parent="1">
          <mxGeometry x="-173" y="1194" width="175" height="92" as="geometry" />
        </mxCell>
        <mxCell id="ImmpMmd_PSmf4jzoIvcc-5" value="Contextos" style="locked=1;" parent="0" visible="0" />
        <mxCell id="ImmpMmd_PSmf4jzoIvcc-8" value="Bounded Context&lt;div&gt;&lt;ol&gt;&lt;li&gt;Consultar Lista de Filmes&lt;/li&gt;&lt;li&gt;Consultar Detalhes do Filme&lt;/li&gt;&lt;li&gt;Incluir Sessão no Carrinho de Compras&lt;/li&gt;&lt;li&gt;Cadastrar Cliente&lt;/li&gt;&lt;li&gt;Finalizar Pedido&lt;/li&gt;&lt;/ol&gt;&lt;/div&gt;" style="html=1;dashed=0;whiteSpace=wrap;sketch=1;hachureGap=4;jiggle=2;curveFitting=1;fontFamily=Architects Daughter;fontSource=https%3A%2F%2Ffonts.googleapis.com%2Fcss%3Ffamily%3DArchitects%2BDaughter;align=left;fillColor=none;fontColor=#ffffff;strokeColor=#001DBC;strokeWidth=7;" vertex="1" parent="ImmpMmd_PSmf4jzoIvcc-5">
          <mxGeometry x="-894" y="-289" width="302" height="215" as="geometry" />
        </mxCell>
        <mxCell id="ImmpMmd_PSmf4jzoIvcc-9" value="1" style="html=1;dashed=0;whiteSpace=wrap;sketch=1;hachureGap=4;jiggle=2;curveFitting=1;fontFamily=Architects Daughter;fontSource=https%3A%2F%2Ffonts.googleapis.com%2Fcss%3Ffamily%3DArchitects%2BDaughter;align=center;fillColor=none;fontColor=#ffffff;strokeColor=#001DBC;strokeWidth=7;fontSize=29;" vertex="1" parent="ImmpMmd_PSmf4jzoIvcc-5">
          <mxGeometry x="-1163" y="53" width="104" height="69" as="geometry" />
        </mxCell>
        <mxCell id="ImmpMmd_PSmf4jzoIvcc-10" value="2" style="html=1;dashed=0;whiteSpace=wrap;sketch=1;hachureGap=4;jiggle=2;curveFitting=1;fontFamily=Architects Daughter;fontSource=https%3A%2F%2Ffonts.googleapis.com%2Fcss%3Ffamily%3DArchitects%2BDaughter;align=center;fillColor=none;fontColor=#ffffff;strokeColor=#001DBC;strokeWidth=7;fontSize=29;" vertex="1" parent="ImmpMmd_PSmf4jzoIvcc-5">
          <mxGeometry x="-719" y="21" width="104" height="69" as="geometry" />
        </mxCell>
        <mxCell id="ImmpMmd_PSmf4jzoIvcc-11" value="4" style="html=1;dashed=0;whiteSpace=wrap;sketch=1;hachureGap=4;jiggle=2;curveFitting=1;fontFamily=Architects Daughter;fontSource=https%3A%2F%2Ffonts.googleapis.com%2Fcss%3Ffamily%3DArchitects%2BDaughter;align=center;fillColor=none;fontColor=#ffffff;strokeColor=#001DBC;strokeWidth=7;fontSize=29;" vertex="1" parent="ImmpMmd_PSmf4jzoIvcc-5">
          <mxGeometry x="-968" y="404" width="104" height="69" as="geometry" />
        </mxCell>
        <mxCell id="ImmpMmd_PSmf4jzoIvcc-12" value="4" style="html=1;dashed=0;whiteSpace=wrap;sketch=1;hachureGap=4;jiggle=2;curveFitting=1;fontFamily=Architects Daughter;fontSource=https%3A%2F%2Ffonts.googleapis.com%2Fcss%3Ffamily%3DArchitects%2BDaughter;align=center;fillColor=none;fontColor=#ffffff;strokeColor=#001DBC;strokeWidth=7;fontSize=29;" vertex="1" parent="ImmpMmd_PSmf4jzoIvcc-5">
          <mxGeometry x="-184" y="1035" width="104" height="69" as="geometry" />
        </mxCell>
        <mxCell id="ImmpMmd_PSmf4jzoIvcc-13" value="3" style="html=1;dashed=0;whiteSpace=wrap;sketch=1;hachureGap=4;jiggle=2;curveFitting=1;fontFamily=Architects Daughter;fontSource=https%3A%2F%2Ffonts.googleapis.com%2Fcss%3Ffamily%3DArchitects%2BDaughter;align=center;fillColor=none;fontColor=#ffffff;strokeColor=#001DBC;strokeWidth=7;fontSize=29;" vertex="1" parent="ImmpMmd_PSmf4jzoIvcc-5">
          <mxGeometry x="-637" y="609.5" width="104" height="69" as="geometry" />
        </mxCell>
        <mxCell id="ImmpMmd_PSmf4jzoIvcc-20" style="edgeStyle=none;curved=1;rounded=0;sketch=1;hachureGap=4;jiggle=2;curveFitting=1;orthogonalLoop=1;jettySize=auto;html=1;exitX=0;exitY=0.5;exitDx=0;exitDy=0;fontFamily=Architects Daughter;fontSource=https%3A%2F%2Ffonts.googleapis.com%2Fcss%3Ffamily%3DArchitects%2BDaughter;fontSize=16;startSize=14;endArrow=open;endSize=14;sourcePerimeterSpacing=8;targetPerimeterSpacing=8;" edge="1" parent="ImmpMmd_PSmf4jzoIvcc-5">
          <mxGeometry relative="1" as="geometry">
            <mxPoint x="-1084.125951384529" y="845.2499999999995" as="sourcePoint" />
            <mxPoint x="-1092.2398634221217" y="847.147870677305" as="targetPoint" />
          </mxGeometry>
        </mxCell>
        <mxCell id="ImmpMmd_PSmf4jzoIvcc-21" value="Carrinho de Compras" style="ellipse;whiteSpace=wrap;html=1;sketch=1;hachureGap=4;jiggle=2;curveFitting=1;fontFamily=Architects Daughter;fontSource=https%3A%2F%2Ffonts.googleapis.com%2Fcss%3Ffamily%3DArchitects%2BDaughter;fillColor=none;fontColor=#ffffff;strokeColor=#005700;horizontal=1;verticalAlign=top;fontSize=25;strokeWidth=2;rotation=-30;" vertex="1" parent="ImmpMmd_PSmf4jzoIvcc-5">
          <mxGeometry x="-901" y="525" width="626" height="377" as="geometry" />
        </mxCell>
        <mxCell id="ImmpMmd_PSmf4jzoIvcc-23" value="Clientes" style="ellipse;whiteSpace=wrap;html=1;sketch=1;hachureGap=4;jiggle=2;curveFitting=1;fontFamily=Architects Daughter;fontSource=https%3A%2F%2Ffonts.googleapis.com%2Fcss%3Ffamily%3DArchitects%2BDaughter;fillColor=none;fontColor=#ffffff;strokeColor=#005700;horizontal=1;verticalAlign=top;fontSize=25;strokeWidth=2;" vertex="1" parent="ImmpMmd_PSmf4jzoIvcc-5">
          <mxGeometry x="-1274" y="464" width="560" height="244" as="geometry" />
        </mxCell>
        <mxCell id="ImmpMmd_PSmf4jzoIvcc-24" value="Catálogo" style="ellipse;whiteSpace=wrap;html=1;sketch=1;hachureGap=4;jiggle=2;curveFitting=1;fontFamily=Architects Daughter;fontSource=https%3A%2F%2Ffonts.googleapis.com%2Fcss%3Ffamily%3DArchitects%2BDaughter;fillColor=none;fontColor=#ffffff;strokeColor=#005700;horizontal=1;verticalAlign=top;fontSize=25;strokeWidth=2;" vertex="1" parent="ImmpMmd_PSmf4jzoIvcc-5">
          <mxGeometry x="-880" y="-15" width="1259" height="596" as="geometry" />
        </mxCell>
        <mxCell id="ImmpMmd_PSmf4jzoIvcc-25" value="Pedidos" style="ellipse;whiteSpace=wrap;html=1;sketch=1;hachureGap=4;jiggle=2;curveFitting=1;fontFamily=Architects Daughter;fontSource=https%3A%2F%2Ffonts.googleapis.com%2Fcss%3Ffamily%3DArchitects%2BDaughter;fillColor=none;fontColor=#ffffff;strokeColor=#005700;horizontal=1;verticalAlign=top;fontSize=25;strokeWidth=2;rotation=-30;" vertex="1" parent="ImmpMmd_PSmf4jzoIvcc-5">
          <mxGeometry x="-667.34" y="863.47" width="626.18" height="414.38" as="geometry" />
        </mxCell>
        <mxCell id="ImmpMmd_PSmf4jzoIvcc-26" value="" style="rounded=0;whiteSpace=wrap;html=1;sketch=1;hachureGap=4;jiggle=2;curveFitting=1;fontFamily=Architects Daughter;fontSource=https%3A%2F%2Ffonts.googleapis.com%2Fcss%3Ffamily%3DArchitects%2BDaughter;" vertex="1" parent="ImmpMmd_PSmf4jzoIvcc-5">
          <mxGeometry x="-449" y="196" width="120" height="60" as="geometry" />
        </mxCell>
        <mxCell id="ImmpMmd_PSmf4jzoIvcc-27" value="" style="rounded=0;whiteSpace=wrap;html=1;sketch=1;hachureGap=4;jiggle=2;curveFitting=1;fontFamily=Architects Daughter;fontSource=https%3A%2F%2Ffonts.googleapis.com%2Fcss%3Ffamily%3DArchitects%2BDaughter;" vertex="1" parent="ImmpMmd_PSmf4jzoIvcc-5">
          <mxGeometry x="-449" y="196" width="120" height="60" as="geometry" />
        </mxCell>
        <mxCell id="ImmpMmd_PSmf4jzoIvcc-28" value="&lt;b&gt;&lt;br&gt;&lt;/b&gt;&lt;div&gt;&lt;p style=&quot;background-color: initial;&quot;&gt;&lt;/p&gt;&lt;ul&gt;&lt;li&gt;&lt;p style=&quot;background-color: initial; display: inline !important;&quot;&gt;&lt;b&gt;Catálogo:&lt;/b&gt;&lt;/p&gt;&lt;/li&gt;&lt;li&gt;&lt;b style=&quot;background-color: initial;&quot;&gt;&lt;span style=&quot;white-space: pre;&quot;&gt;&#x9;&lt;/span&gt;Gerencia os produtos (filmes), suas sessões e especificações de preços.&lt;/b&gt;&lt;/li&gt;&lt;li&gt;&lt;b&gt;&lt;span style=&quot;white-space: pre;&quot;&gt;&#x9;&lt;/span&gt;Interfaces e serviços relacionados ao gerenciamento de produtos.&lt;/b&gt;&lt;/li&gt;&lt;li&gt;&lt;b&gt;Carrinho de Compras:&lt;/b&gt;&lt;/li&gt;&lt;li&gt;&lt;b&gt;&lt;span style=&quot;white-space: pre;&quot;&gt;&#x9;&lt;/span&gt;Gerencia os carrinhos de compras dos clientes.&lt;/b&gt;&lt;/li&gt;&lt;li&gt;&lt;b&gt;&lt;span style=&quot;white-space: pre;&quot;&gt;&#x9;&lt;/span&gt;Operações de adicionar, remover itens e calcular totais.&lt;/b&gt;&lt;/li&gt;&lt;li&gt;&lt;b&gt;Clientes:&lt;/b&gt;&lt;/li&gt;&lt;li&gt;&lt;b&gt;&lt;span style=&quot;white-space: pre;&quot;&gt;&#x9;&lt;/span&gt;Gerencia as informações dos clientes.&lt;/b&gt;&lt;/li&gt;&lt;li&gt;&lt;b&gt;&lt;span style=&quot;white-space: pre;&quot;&gt;&#x9;&lt;/span&gt;Registro e autenticação de clientes.&lt;/b&gt;&lt;/li&gt;&lt;li&gt;&lt;b&gt;Pedidos:&lt;/b&gt;&lt;/li&gt;&lt;li&gt;&lt;b style=&quot;background-color: initial;&quot;&gt;&lt;span style=&quot;white-space: pre;&quot;&gt;&#x9;&lt;/span&gt;Processamento e gerenciamento de pedidos.&lt;/b&gt;&lt;/li&gt;&lt;li&gt;&lt;b&gt;&lt;span style=&quot;white-space: pre;&quot;&gt;&#x9;&lt;/span&gt;Atualização de status e histórico de pedidos&lt;/b&gt;&lt;/li&gt;&lt;/ul&gt;&lt;p&gt;&lt;/p&gt;&lt;/div&gt;" style="rounded=0;whiteSpace=wrap;html=1;sketch=1;hachureGap=4;jiggle=2;curveFitting=1;fontFamily=Architects Daughter;fontSource=https%3A%2F%2Ffonts.googleapis.com%2Fcss%3Ffamily%3DArchitects%2BDaughter;fillColor=none;fontColor=#ffffff;strokeColor=#2D7600;align=left;spacingLeft=15;strokeWidth=7;" vertex="1" parent="ImmpMmd_PSmf4jzoIvcc-5">
          <mxGeometry x="-496" y="-311" width="728" height="227" as="geometry" />
        </mxCell>
        <mxCell id="ImmpMmd_PSmf4jzoIvcc-14" value="Tipo Entidade/Contexto" style="locked=1;" parent="0" />
        <mxCell id="ImmpMmd_PSmf4jzoIvcc-15" value="Agregado" style="ellipse;whiteSpace=wrap;html=1;align=left;sketch=1;hachureGap=4;jiggle=2;curveFitting=1;fontFamily=Architects Daughter;fontSource=https%3A%2F%2Ffonts.googleapis.com%2Fcss%3Ffamily%3DArchitects%2BDaughter;fillColor=none;spacingLeft=20;fontSize=18;fontStyle=1;gradientColor=#ffa500;strokeColor=#d79b00;fontColor=#D67D00;" vertex="1" parent="ImmpMmd_PSmf4jzoIvcc-14">
          <mxGeometry x="-797" y="194" width="502" height="342" as="geometry" />
        </mxCell>
        <mxCell id="ImmpMmd_PSmf4jzoIvcc-16" value="ObjectValue" style="ellipse;whiteSpace=wrap;html=1;align=center;sketch=1;hachureGap=4;jiggle=2;curveFitting=1;fontFamily=Architects Daughter;fontSource=https%3A%2F%2Ffonts.googleapis.com%2Fcss%3Ffamily%3DArchitects%2BDaughter;fillColor=none;spacingLeft=20;fontSize=18;fontStyle=1;verticalAlign=top;gradientColor=#ffa500;strokeColor=#d79b00;fontColor=#D67D00;" vertex="1" parent="ImmpMmd_PSmf4jzoIvcc-14">
          <mxGeometry x="-448" y="-8" width="723" height="341" as="geometry" />
        </mxCell>
        <mxCell id="ImmpMmd_PSmf4jzoIvcc-17" value="Agregado" style="ellipse;whiteSpace=wrap;html=1;align=left;sketch=1;hachureGap=4;jiggle=2;curveFitting=1;fontFamily=Architects Daughter;fontSource=https%3A%2F%2Ffonts.googleapis.com%2Fcss%3Ffamily%3DArchitects%2BDaughter;fillColor=none;spacingLeft=20;fontSize=18;fontStyle=1;gradientColor=#ffa500;strokeColor=#d79b00;fontColor=#D67D00;" vertex="1" parent="ImmpMmd_PSmf4jzoIvcc-14">
          <mxGeometry x="-774" y="491" width="583" height="298" as="geometry" />
        </mxCell>
        <mxCell id="ImmpMmd_PSmf4jzoIvcc-18" value="ObjectValue" style="ellipse;whiteSpace=wrap;html=1;align=left;sketch=1;hachureGap=4;jiggle=2;curveFitting=1;fontFamily=Architects Daughter;fontSource=https%3A%2F%2Ffonts.googleapis.com%2Fcss%3Ffamily%3DArchitects%2BDaughter;fillColor=none;spacingLeft=20;fontSize=18;fontStyle=1;gradientColor=#ffa500;strokeColor=#d79b00;fontColor=#D67D00;" vertex="1" parent="ImmpMmd_PSmf4jzoIvcc-14">
          <mxGeometry x="-756" y="982" width="436" height="272" as="geometry" />
        </mxCell>
        <mxCell id="ImmpMmd_PSmf4jzoIvcc-19" value="ObjectValue" style="ellipse;whiteSpace=wrap;html=1;align=left;sketch=1;hachureGap=4;jiggle=2;curveFitting=1;fontFamily=Architects Daughter;fontSource=https%3A%2F%2Ffonts.googleapis.com%2Fcss%3Ffamily%3DArchitects%2BDaughter;fillColor=none;spacingLeft=20;fontSize=18;fontStyle=1;gradientColor=#ffa500;strokeColor=#d79b00;fontColor=#D67D00;" vertex="1" parent="ImmpMmd_PSmf4jzoIvcc-14">
          <mxGeometry x="-963" y="696" width="501" height="272" as="geometry" />
        </mxCell>
        <mxCell id="ImmpMmd_PSmf4jzoIvcc-32" value="Entidade" style="ellipse;whiteSpace=wrap;html=1;align=left;sketch=1;hachureGap=4;jiggle=2;curveFitting=1;fontFamily=Architects Daughter;fontSource=https%3A%2F%2Ffonts.googleapis.com%2Fcss%3Ffamily%3DArchitects%2BDaughter;fillColor=none;spacingLeft=20;fontSize=21;fontStyle=1;rotation=30;gradientColor=#ffa500;strokeColor=#d79b00;fontColor=#D67D00;" vertex="1" parent="ImmpMmd_PSmf4jzoIvcc-14">
          <mxGeometry x="-960" y="155" width="615" height="298" as="geometry" />
        </mxCell>
        <mxCell id="ImmpMmd_PSmf4jzoIvcc-33" value="Entidade" style="ellipse;whiteSpace=wrap;html=1;align=left;sketch=1;hachureGap=4;jiggle=2;curveFitting=1;fontFamily=Architects Daughter;fontSource=https%3A%2F%2Ffonts.googleapis.com%2Fcss%3Ffamily%3DArchitects%2BDaughter;fillColor=none;spacingLeft=20;fontSize=21;fontStyle=1;rotation=0;gradientColor=#ffa500;strokeColor=#d79b00;fontColor=#D67D00;" vertex="1" parent="ImmpMmd_PSmf4jzoIvcc-14">
          <mxGeometry x="-705" y="519" width="424" height="298" as="geometry" />
        </mxCell>
      </root>
    </mxGraphModel>
  </diagram>
  <diagram id="VGmzCLTdCHy8kEBnWv1X" name="Dominios">
    <mxGraphModel dx="6802" dy="4276" grid="0" gridSize="10" guides="1" tooltips="1" connect="1" arrows="1" fold="1" page="1" pageScale="1" pageWidth="850" pageHeight="1100" background="none" math="0" shadow="0">
      <root>
        <mxCell id="0" />
        <mxCell id="1" parent="0" />
        <mxCell id="od6I9YLTL-0dWbk3YG-f-4" value="" style="edgeStyle=none;curved=1;rounded=0;sketch=1;hachureGap=4;jiggle=2;curveFitting=1;orthogonalLoop=1;jettySize=auto;html=1;fontFamily=Architects Daughter;fontSource=https%3A%2F%2Ffonts.googleapis.com%2Fcss%3Ffamily%3DArchitects%2BDaughter;fontSize=16;startSize=14;endArrow=open;endSize=14;sourcePerimeterSpacing=8;targetPerimeterSpacing=8;" edge="1" parent="1" source="od6I9YLTL-0dWbk3YG-f-2" target="od6I9YLTL-0dWbk3YG-f-3">
          <mxGeometry relative="1" as="geometry" />
        </mxCell>
        <mxCell id="od6I9YLTL-0dWbk3YG-f-5" style="edgeStyle=none;curved=1;rounded=0;sketch=1;hachureGap=4;jiggle=2;curveFitting=1;orthogonalLoop=1;jettySize=auto;html=1;fontFamily=Architects Daughter;fontSource=https%3A%2F%2Ffonts.googleapis.com%2Fcss%3Ffamily%3DArchitects%2BDaughter;fontSize=16;startSize=14;endArrow=open;endSize=14;sourcePerimeterSpacing=8;targetPerimeterSpacing=8;entryX=0;entryY=0.5;entryDx=0;entryDy=0;" edge="1" parent="1" source="od6I9YLTL-0dWbk3YG-f-2" target="od6I9YLTL-0dWbk3YG-f-6">
          <mxGeometry relative="1" as="geometry">
            <mxPoint x="512.1429268973216" y="597.8571515764511" as="targetPoint" />
          </mxGeometry>
        </mxCell>
        <mxCell id="od6I9YLTL-0dWbk3YG-f-7" value="" style="edgeStyle=none;curved=1;rounded=0;sketch=1;hachureGap=4;jiggle=2;curveFitting=1;orthogonalLoop=1;jettySize=auto;html=1;fontFamily=Architects Daughter;fontSource=https%3A%2F%2Ffonts.googleapis.com%2Fcss%3Ffamily%3DArchitects%2BDaughter;fontSize=16;startSize=14;endArrow=open;endSize=14;sourcePerimeterSpacing=8;targetPerimeterSpacing=8;" edge="1" parent="1" source="od6I9YLTL-0dWbk3YG-f-2" target="od6I9YLTL-0dWbk3YG-f-3">
          <mxGeometry relative="1" as="geometry" />
        </mxCell>
        <mxCell id="od6I9YLTL-0dWbk3YG-f-8" value="" style="edgeStyle=none;curved=1;rounded=0;sketch=1;hachureGap=4;jiggle=2;curveFitting=1;orthogonalLoop=1;jettySize=auto;html=1;fontFamily=Architects Daughter;fontSource=https%3A%2F%2Ffonts.googleapis.com%2Fcss%3Ffamily%3DArchitects%2BDaughter;fontSize=16;startSize=14;endArrow=open;endSize=14;sourcePerimeterSpacing=8;targetPerimeterSpacing=8;" edge="1" parent="1" source="od6I9YLTL-0dWbk3YG-f-2" target="od6I9YLTL-0dWbk3YG-f-3">
          <mxGeometry relative="1" as="geometry" />
        </mxCell>
        <mxCell id="od6I9YLTL-0dWbk3YG-f-10" style="edgeStyle=none;curved=1;rounded=0;sketch=1;hachureGap=4;jiggle=2;curveFitting=1;orthogonalLoop=1;jettySize=auto;html=1;fontFamily=Architects Daughter;fontSource=https%3A%2F%2Ffonts.googleapis.com%2Fcss%3Ffamily%3DArchitects%2BDaughter;fontSize=16;startSize=14;endArrow=open;endSize=14;sourcePerimeterSpacing=8;targetPerimeterSpacing=8;" edge="1" parent="1" source="od6I9YLTL-0dWbk3YG-f-2" target="od6I9YLTL-0dWbk3YG-f-9">
          <mxGeometry relative="1" as="geometry" />
        </mxCell>
        <mxCell id="od6I9YLTL-0dWbk3YG-f-11" style="edgeStyle=none;curved=1;rounded=0;sketch=1;hachureGap=4;jiggle=2;curveFitting=1;orthogonalLoop=1;jettySize=auto;html=1;fontFamily=Architects Daughter;fontSource=https%3A%2F%2Ffonts.googleapis.com%2Fcss%3Ffamily%3DArchitects%2BDaughter;fontSize=16;startSize=14;endArrow=open;endSize=14;sourcePerimeterSpacing=8;targetPerimeterSpacing=8;" edge="1" parent="1" source="od6I9YLTL-0dWbk3YG-f-2">
          <mxGeometry relative="1" as="geometry">
            <mxPoint x="219" y="834.6666666666667" as="targetPoint" />
          </mxGeometry>
        </mxCell>
        <mxCell id="od6I9YLTL-0dWbk3YG-f-2" value="Carrinho" style="rounded=0;whiteSpace=wrap;html=1;hachureGap=4;fontFamily=Verdana;sketch=1;curveFitting=1;jiggle=2;fillColor=#e1d5e7;strokeColor=#9673a6;fontColor=#FFFFFF;fontStyle=1;fontSize=22;" vertex="1" parent="1">
          <mxGeometry x="97" y="370" width="244" height="127" as="geometry" />
        </mxCell>
        <mxCell id="od6I9YLTL-0dWbk3YG-f-3" value="CriarCarrinho" style="rounded=0;whiteSpace=wrap;html=1;hachureGap=4;fontFamily=Verdana;sketch=1;curveFitting=1;jiggle=2;fillColor=#e1d5e7;strokeColor=#9673a6;fontColor=#FFFFFF;fontStyle=1;fontSize=22;" vertex="1" parent="1">
          <mxGeometry x="432" y="319" width="244" height="127" as="geometry" />
        </mxCell>
        <mxCell id="od6I9YLTL-0dWbk3YG-f-6" value="AddItemCarrinho" style="rounded=0;whiteSpace=wrap;html=1;hachureGap=4;fontFamily=Verdana;sketch=1;curveFitting=1;jiggle=2;fillColor=#e1d5e7;strokeColor=#9673a6;fontColor=#FFFFFF;fontStyle=1;fontSize=22;" vertex="1" parent="1">
          <mxGeometry x="440" y="465" width="335" height="139" as="geometry" />
        </mxCell>
        <mxCell id="od6I9YLTL-0dWbk3YG-f-9" value="RemoverItemCarrinho" style="rounded=0;whiteSpace=wrap;html=1;hachureGap=4;fontFamily=Verdana;sketch=1;curveFitting=1;jiggle=2;fillColor=#e1d5e7;strokeColor=#9673a6;fontColor=#FFFFFF;fontStyle=1;fontSize=22;" vertex="1" parent="1">
          <mxGeometry x="300" y="634" width="335" height="139" as="geometry" />
        </mxCell>
        <mxCell id="od6I9YLTL-0dWbk3YG-f-12" value="AtualizarStatusCarrinho" style="rounded=0;whiteSpace=wrap;html=1;hachureGap=4;fontFamily=Verdana;sketch=1;curveFitting=1;jiggle=2;fillColor=#e1d5e7;strokeColor=#9673a6;fontColor=#FFFFFF;fontStyle=1;fontSize=22;" vertex="1" parent="1">
          <mxGeometry x="99" y="835" width="335" height="139" as="geometry" />
        </mxCell>
        <mxCell id="od6I9YLTL-0dWbk3YG-f-24" value="" style="edgeStyle=none;curved=1;rounded=0;sketch=1;hachureGap=4;jiggle=2;curveFitting=1;orthogonalLoop=1;jettySize=auto;html=1;fontFamily=Architects Daughter;fontSource=https%3A%2F%2Ffonts.googleapis.com%2Fcss%3Ffamily%3DArchitects%2BDaughter;fontSize=16;startSize=14;endArrow=open;endSize=14;sourcePerimeterSpacing=8;targetPerimeterSpacing=8;" edge="1" parent="1" source="od6I9YLTL-0dWbk3YG-f-30" target="od6I9YLTL-0dWbk3YG-f-31">
          <mxGeometry relative="1" as="geometry" />
        </mxCell>
        <mxCell id="od6I9YLTL-0dWbk3YG-f-26" value="" style="edgeStyle=none;curved=1;rounded=0;sketch=1;hachureGap=4;jiggle=2;curveFitting=1;orthogonalLoop=1;jettySize=auto;html=1;fontFamily=Architects Daughter;fontSource=https%3A%2F%2Ffonts.googleapis.com%2Fcss%3Ffamily%3DArchitects%2BDaughter;fontSize=16;startSize=14;endArrow=open;endSize=14;sourcePerimeterSpacing=8;targetPerimeterSpacing=8;" edge="1" parent="1" source="od6I9YLTL-0dWbk3YG-f-30" target="od6I9YLTL-0dWbk3YG-f-31">
          <mxGeometry relative="1" as="geometry" />
        </mxCell>
        <mxCell id="od6I9YLTL-0dWbk3YG-f-27" value="" style="edgeStyle=none;curved=1;rounded=0;sketch=1;hachureGap=4;jiggle=2;curveFitting=1;orthogonalLoop=1;jettySize=auto;html=1;fontFamily=Architects Daughter;fontSource=https%3A%2F%2Ffonts.googleapis.com%2Fcss%3Ffamily%3DArchitects%2BDaughter;fontSize=16;startSize=14;endArrow=open;endSize=14;sourcePerimeterSpacing=8;targetPerimeterSpacing=8;" edge="1" parent="1" source="od6I9YLTL-0dWbk3YG-f-30" target="od6I9YLTL-0dWbk3YG-f-31">
          <mxGeometry relative="1" as="geometry" />
        </mxCell>
        <mxCell id="od6I9YLTL-0dWbk3YG-f-29" style="edgeStyle=none;curved=1;rounded=0;sketch=1;hachureGap=4;jiggle=2;curveFitting=1;orthogonalLoop=1;jettySize=auto;html=1;fontFamily=Architects Daughter;fontSource=https%3A%2F%2Ffonts.googleapis.com%2Fcss%3Ffamily%3DArchitects%2BDaughter;fontSize=16;startSize=14;endArrow=open;endSize=14;sourcePerimeterSpacing=8;targetPerimeterSpacing=8;entryX=0.372;entryY=-0.02;entryDx=0;entryDy=0;entryPerimeter=0;" edge="1" parent="1" source="od6I9YLTL-0dWbk3YG-f-30" target="od6I9YLTL-0dWbk3YG-f-34">
          <mxGeometry relative="1" as="geometry">
            <mxPoint x="-644" y="-464.33333333333326" as="targetPoint" />
          </mxGeometry>
        </mxCell>
        <mxCell id="od6I9YLTL-0dWbk3YG-f-30" value="Filme" style="rounded=0;whiteSpace=wrap;html=1;hachureGap=4;fontFamily=Verdana;sketch=1;curveFitting=1;jiggle=2;fillColor=#e1d5e7;strokeColor=#9673a6;fontColor=#FFFFFF;fontStyle=1;fontSize=22;" vertex="1" parent="1">
          <mxGeometry x="-766" y="-929" width="244" height="127" as="geometry" />
        </mxCell>
        <mxCell id="od6I9YLTL-0dWbk3YG-f-31" value="IncluirFilmes" style="rounded=0;whiteSpace=wrap;html=1;hachureGap=4;fontFamily=Verdana;sketch=1;curveFitting=1;jiggle=2;fillColor=#e1d5e7;strokeColor=#9673a6;fontColor=#FFFFFF;fontStyle=1;fontSize=22;" vertex="1" parent="1">
          <mxGeometry x="-431" y="-980" width="244" height="127" as="geometry" />
        </mxCell>
        <mxCell id="od6I9YLTL-0dWbk3YG-f-34" value="AtualizarStatusCarrinho" style="rounded=0;whiteSpace=wrap;html=1;hachureGap=4;fontFamily=Verdana;sketch=1;curveFitting=1;jiggle=2;fillColor=#e1d5e7;strokeColor=#9673a6;fontColor=#FFFFFF;fontStyle=1;fontSize=22;" vertex="1" parent="1">
          <mxGeometry x="-665" y="-707" width="335" height="139" as="geometry" />
        </mxCell>
        <mxCell id="od6I9YLTL-0dWbk3YG-f-35" value="" style="edgeStyle=none;curved=1;rounded=0;sketch=1;hachureGap=4;jiggle=2;curveFitting=1;orthogonalLoop=1;jettySize=auto;html=1;fontFamily=Architects Daughter;fontSource=https%3A%2F%2Ffonts.googleapis.com%2Fcss%3Ffamily%3DArchitects%2BDaughter;fontSize=16;startSize=14;endArrow=open;endSize=14;sourcePerimeterSpacing=8;targetPerimeterSpacing=8;" edge="1" parent="1" source="od6I9YLTL-0dWbk3YG-f-39" target="od6I9YLTL-0dWbk3YG-f-40">
          <mxGeometry relative="1" as="geometry" />
        </mxCell>
        <mxCell id="od6I9YLTL-0dWbk3YG-f-36" value="" style="edgeStyle=none;curved=1;rounded=0;sketch=1;hachureGap=4;jiggle=2;curveFitting=1;orthogonalLoop=1;jettySize=auto;html=1;fontFamily=Architects Daughter;fontSource=https%3A%2F%2Ffonts.googleapis.com%2Fcss%3Ffamily%3DArchitects%2BDaughter;fontSize=16;startSize=14;endArrow=open;endSize=14;sourcePerimeterSpacing=8;targetPerimeterSpacing=8;" edge="1" parent="1" source="od6I9YLTL-0dWbk3YG-f-39" target="od6I9YLTL-0dWbk3YG-f-40">
          <mxGeometry relative="1" as="geometry" />
        </mxCell>
        <mxCell id="od6I9YLTL-0dWbk3YG-f-37" value="" style="edgeStyle=none;curved=1;rounded=0;sketch=1;hachureGap=4;jiggle=2;curveFitting=1;orthogonalLoop=1;jettySize=auto;html=1;fontFamily=Architects Daughter;fontSource=https%3A%2F%2Ffonts.googleapis.com%2Fcss%3Ffamily%3DArchitects%2BDaughter;fontSize=16;startSize=14;endArrow=open;endSize=14;sourcePerimeterSpacing=8;targetPerimeterSpacing=8;" edge="1" parent="1" source="od6I9YLTL-0dWbk3YG-f-39" target="od6I9YLTL-0dWbk3YG-f-40">
          <mxGeometry relative="1" as="geometry" />
        </mxCell>
        <mxCell id="od6I9YLTL-0dWbk3YG-f-38" style="edgeStyle=none;curved=1;rounded=0;sketch=1;hachureGap=4;jiggle=2;curveFitting=1;orthogonalLoop=1;jettySize=auto;html=1;fontFamily=Architects Daughter;fontSource=https%3A%2F%2Ffonts.googleapis.com%2Fcss%3Ffamily%3DArchitects%2BDaughter;fontSize=16;startSize=14;endArrow=open;endSize=14;sourcePerimeterSpacing=8;targetPerimeterSpacing=8;entryX=0.372;entryY=-0.02;entryDx=0;entryDy=0;entryPerimeter=0;" edge="1" parent="1" source="od6I9YLTL-0dWbk3YG-f-39" target="od6I9YLTL-0dWbk3YG-f-41">
          <mxGeometry relative="1" as="geometry">
            <mxPoint x="314" y="-477.33333333333326" as="targetPoint" />
          </mxGeometry>
        </mxCell>
        <mxCell id="od6I9YLTL-0dWbk3YG-f-39" value="Sala" style="rounded=0;whiteSpace=wrap;html=1;hachureGap=4;fontFamily=Verdana;sketch=1;curveFitting=1;jiggle=2;fillColor=#e1d5e7;strokeColor=#9673a6;fontColor=#FFFFFF;fontStyle=1;fontSize=22;" vertex="1" parent="1">
          <mxGeometry x="192" y="-942" width="244" height="127" as="geometry" />
        </mxCell>
        <mxCell id="od6I9YLTL-0dWbk3YG-f-40" value="IncluirSala" style="rounded=0;whiteSpace=wrap;html=1;hachureGap=4;fontFamily=Verdana;sketch=1;curveFitting=1;jiggle=2;fillColor=#e1d5e7;strokeColor=#9673a6;fontColor=#FFFFFF;fontStyle=1;fontSize=22;" vertex="1" parent="1">
          <mxGeometry x="527" y="-993" width="244" height="127" as="geometry" />
        </mxCell>
        <mxCell id="od6I9YLTL-0dWbk3YG-f-41" value="AtualizarSala" style="rounded=0;whiteSpace=wrap;html=1;hachureGap=4;fontFamily=Verdana;sketch=1;curveFitting=1;jiggle=2;fillColor=#e1d5e7;strokeColor=#9673a6;fontColor=#FFFFFF;fontStyle=1;fontSize=22;" vertex="1" parent="1">
          <mxGeometry x="293" y="-720" width="335" height="139" as="geometry" />
        </mxCell>
        <mxCell id="RgA5Imkx3qrKo5mvGBN7-1" value="" style="edgeStyle=none;curved=1;rounded=0;sketch=1;hachureGap=4;jiggle=2;curveFitting=1;orthogonalLoop=1;jettySize=auto;html=1;fontFamily=Architects Daughter;fontSource=https%3A%2F%2Ffonts.googleapis.com%2Fcss%3Ffamily%3DArchitects%2BDaughter;fontSize=16;startSize=14;endArrow=open;endSize=14;sourcePerimeterSpacing=8;targetPerimeterSpacing=8;" edge="1" parent="1" source="RgA5Imkx3qrKo5mvGBN7-5" target="RgA5Imkx3qrKo5mvGBN7-6">
          <mxGeometry relative="1" as="geometry" />
        </mxCell>
        <mxCell id="RgA5Imkx3qrKo5mvGBN7-2" value="" style="edgeStyle=none;curved=1;rounded=0;sketch=1;hachureGap=4;jiggle=2;curveFitting=1;orthogonalLoop=1;jettySize=auto;html=1;fontFamily=Architects Daughter;fontSource=https%3A%2F%2Ffonts.googleapis.com%2Fcss%3Ffamily%3DArchitects%2BDaughter;fontSize=16;startSize=14;endArrow=open;endSize=14;sourcePerimeterSpacing=8;targetPerimeterSpacing=8;" edge="1" parent="1" source="RgA5Imkx3qrKo5mvGBN7-5" target="RgA5Imkx3qrKo5mvGBN7-6">
          <mxGeometry relative="1" as="geometry" />
        </mxCell>
        <mxCell id="RgA5Imkx3qrKo5mvGBN7-3" value="" style="edgeStyle=none;curved=1;rounded=0;sketch=1;hachureGap=4;jiggle=2;curveFitting=1;orthogonalLoop=1;jettySize=auto;html=1;fontFamily=Architects Daughter;fontSource=https%3A%2F%2Ffonts.googleapis.com%2Fcss%3Ffamily%3DArchitects%2BDaughter;fontSize=16;startSize=14;endArrow=open;endSize=14;sourcePerimeterSpacing=8;targetPerimeterSpacing=8;" edge="1" parent="1" source="RgA5Imkx3qrKo5mvGBN7-5" target="RgA5Imkx3qrKo5mvGBN7-6">
          <mxGeometry relative="1" as="geometry" />
        </mxCell>
        <mxCell id="RgA5Imkx3qrKo5mvGBN7-4" style="edgeStyle=none;curved=1;rounded=0;sketch=1;hachureGap=4;jiggle=2;curveFitting=1;orthogonalLoop=1;jettySize=auto;html=1;fontFamily=Architects Daughter;fontSource=https%3A%2F%2Ffonts.googleapis.com%2Fcss%3Ffamily%3DArchitects%2BDaughter;fontSize=16;startSize=14;endArrow=open;endSize=14;sourcePerimeterSpacing=8;targetPerimeterSpacing=8;entryX=0.372;entryY=-0.02;entryDx=0;entryDy=0;entryPerimeter=0;" edge="1" parent="1" source="RgA5Imkx3qrKo5mvGBN7-5" target="RgA5Imkx3qrKo5mvGBN7-7">
          <mxGeometry relative="1" as="geometry">
            <mxPoint x="1094" y="-429.33333333333326" as="targetPoint" />
          </mxGeometry>
        </mxCell>
        <mxCell id="RgA5Imkx3qrKo5mvGBN7-5" value="Preços" style="rounded=0;whiteSpace=wrap;html=1;hachureGap=4;fontFamily=Verdana;sketch=1;curveFitting=1;jiggle=2;fillColor=#e1d5e7;strokeColor=#9673a6;fontColor=#FFFFFF;fontStyle=1;fontSize=22;" vertex="1" parent="1">
          <mxGeometry x="972" y="-894" width="244" height="127" as="geometry" />
        </mxCell>
        <mxCell id="RgA5Imkx3qrKo5mvGBN7-6" value="IncluirPreço" style="rounded=0;whiteSpace=wrap;html=1;hachureGap=4;fontFamily=Verdana;sketch=1;curveFitting=1;jiggle=2;fillColor=#e1d5e7;strokeColor=#9673a6;fontColor=#FFFFFF;fontStyle=1;fontSize=22;" vertex="1" parent="1">
          <mxGeometry x="1307" y="-945" width="244" height="127" as="geometry" />
        </mxCell>
        <mxCell id="RgA5Imkx3qrKo5mvGBN7-7" value="AtualizarPreço" style="rounded=0;whiteSpace=wrap;html=1;hachureGap=4;fontFamily=Verdana;sketch=1;curveFitting=1;jiggle=2;fillColor=#e1d5e7;strokeColor=#9673a6;fontColor=#FFFFFF;fontStyle=1;fontSize=22;" vertex="1" parent="1">
          <mxGeometry x="1073" y="-672" width="335" height="139" as="geometry" />
        </mxCell>
        <mxCell id="RgA5Imkx3qrKo5mvGBN7-8" value="" style="edgeStyle=none;curved=1;rounded=0;sketch=1;hachureGap=4;jiggle=2;curveFitting=1;orthogonalLoop=1;jettySize=auto;html=1;fontFamily=Architects Daughter;fontSource=https%3A%2F%2Ffonts.googleapis.com%2Fcss%3Ffamily%3DArchitects%2BDaughter;fontSize=16;startSize=14;endArrow=open;endSize=14;sourcePerimeterSpacing=8;targetPerimeterSpacing=8;" edge="1" parent="1" source="RgA5Imkx3qrKo5mvGBN7-12" target="RgA5Imkx3qrKo5mvGBN7-13">
          <mxGeometry relative="1" as="geometry" />
        </mxCell>
        <mxCell id="RgA5Imkx3qrKo5mvGBN7-9" value="" style="edgeStyle=none;curved=1;rounded=0;sketch=1;hachureGap=4;jiggle=2;curveFitting=1;orthogonalLoop=1;jettySize=auto;html=1;fontFamily=Architects Daughter;fontSource=https%3A%2F%2Ffonts.googleapis.com%2Fcss%3Ffamily%3DArchitects%2BDaughter;fontSize=16;startSize=14;endArrow=open;endSize=14;sourcePerimeterSpacing=8;targetPerimeterSpacing=8;" edge="1" parent="1" source="RgA5Imkx3qrKo5mvGBN7-12" target="RgA5Imkx3qrKo5mvGBN7-13">
          <mxGeometry relative="1" as="geometry" />
        </mxCell>
        <mxCell id="RgA5Imkx3qrKo5mvGBN7-10" value="" style="edgeStyle=none;curved=1;rounded=0;sketch=1;hachureGap=4;jiggle=2;curveFitting=1;orthogonalLoop=1;jettySize=auto;html=1;fontFamily=Architects Daughter;fontSource=https%3A%2F%2Ffonts.googleapis.com%2Fcss%3Ffamily%3DArchitects%2BDaughter;fontSize=16;startSize=14;endArrow=open;endSize=14;sourcePerimeterSpacing=8;targetPerimeterSpacing=8;" edge="1" parent="1" source="RgA5Imkx3qrKo5mvGBN7-12" target="RgA5Imkx3qrKo5mvGBN7-13">
          <mxGeometry relative="1" as="geometry" />
        </mxCell>
        <mxCell id="RgA5Imkx3qrKo5mvGBN7-11" style="edgeStyle=none;curved=1;rounded=0;sketch=1;hachureGap=4;jiggle=2;curveFitting=1;orthogonalLoop=1;jettySize=auto;html=1;fontFamily=Architects Daughter;fontSource=https%3A%2F%2Ffonts.googleapis.com%2Fcss%3Ffamily%3DArchitects%2BDaughter;fontSize=16;startSize=14;endArrow=open;endSize=14;sourcePerimeterSpacing=8;targetPerimeterSpacing=8;entryX=0.372;entryY=-0.02;entryDx=0;entryDy=0;entryPerimeter=0;" edge="1" parent="1" source="RgA5Imkx3qrKo5mvGBN7-12" target="RgA5Imkx3qrKo5mvGBN7-14">
          <mxGeometry relative="1" as="geometry">
            <mxPoint x="272" y="167.66666666666674" as="targetPoint" />
          </mxGeometry>
        </mxCell>
        <mxCell id="RgA5Imkx3qrKo5mvGBN7-12" value="Agendamento" style="rounded=0;whiteSpace=wrap;html=1;hachureGap=4;fontFamily=Verdana;sketch=1;curveFitting=1;jiggle=2;fillColor=#e1d5e7;strokeColor=#9673a6;fontColor=#FFFFFF;fontStyle=1;fontSize=22;" vertex="1" parent="1">
          <mxGeometry x="150" y="-297" width="244" height="127" as="geometry" />
        </mxCell>
        <mxCell id="RgA5Imkx3qrKo5mvGBN7-13" value="CriarAgendamento" style="rounded=0;whiteSpace=wrap;html=1;hachureGap=4;fontFamily=Verdana;sketch=1;curveFitting=1;jiggle=2;fillColor=#e1d5e7;strokeColor=#9673a6;fontColor=#FFFFFF;fontStyle=1;fontSize=22;" vertex="1" parent="1">
          <mxGeometry x="485" y="-348" width="244" height="127" as="geometry" />
        </mxCell>
        <mxCell id="RgA5Imkx3qrKo5mvGBN7-14" value="AtualizarAgendamento" style="rounded=0;whiteSpace=wrap;html=1;hachureGap=4;fontFamily=Verdana;sketch=1;curveFitting=1;jiggle=2;fillColor=#e1d5e7;strokeColor=#9673a6;fontColor=#FFFFFF;fontStyle=1;fontSize=22;" vertex="1" parent="1">
          <mxGeometry x="251" y="-75" width="335" height="139" as="geometry" />
        </mxCell>
        <mxCell id="Ns6PyetZf498ZepUySWi-1" value="" style="edgeStyle=none;curved=1;rounded=0;sketch=1;hachureGap=4;jiggle=2;curveFitting=1;orthogonalLoop=1;jettySize=auto;html=1;fontFamily=Architects Daughter;fontSource=https%3A%2F%2Ffonts.googleapis.com%2Fcss%3Ffamily%3DArchitects%2BDaughter;fontSize=16;startSize=14;endArrow=open;endSize=14;sourcePerimeterSpacing=8;targetPerimeterSpacing=8;" edge="1" parent="1" source="Ns6PyetZf498ZepUySWi-5" target="Ns6PyetZf498ZepUySWi-6">
          <mxGeometry relative="1" as="geometry" />
        </mxCell>
        <mxCell id="Ns6PyetZf498ZepUySWi-2" value="" style="edgeStyle=none;curved=1;rounded=0;sketch=1;hachureGap=4;jiggle=2;curveFitting=1;orthogonalLoop=1;jettySize=auto;html=1;fontFamily=Architects Daughter;fontSource=https%3A%2F%2Ffonts.googleapis.com%2Fcss%3Ffamily%3DArchitects%2BDaughter;fontSize=16;startSize=14;endArrow=open;endSize=14;sourcePerimeterSpacing=8;targetPerimeterSpacing=8;" edge="1" parent="1" source="Ns6PyetZf498ZepUySWi-5" target="Ns6PyetZf498ZepUySWi-6">
          <mxGeometry relative="1" as="geometry" />
        </mxCell>
        <mxCell id="Ns6PyetZf498ZepUySWi-3" value="" style="edgeStyle=none;curved=1;rounded=0;sketch=1;hachureGap=4;jiggle=2;curveFitting=1;orthogonalLoop=1;jettySize=auto;html=1;fontFamily=Architects Daughter;fontSource=https%3A%2F%2Ffonts.googleapis.com%2Fcss%3Ffamily%3DArchitects%2BDaughter;fontSize=16;startSize=14;endArrow=open;endSize=14;sourcePerimeterSpacing=8;targetPerimeterSpacing=8;" edge="1" parent="1" source="Ns6PyetZf498ZepUySWi-5" target="Ns6PyetZf498ZepUySWi-6">
          <mxGeometry relative="1" as="geometry" />
        </mxCell>
        <mxCell id="Ns6PyetZf498ZepUySWi-4" style="edgeStyle=none;curved=1;rounded=0;sketch=1;hachureGap=4;jiggle=2;curveFitting=1;orthogonalLoop=1;jettySize=auto;html=1;fontFamily=Architects Daughter;fontSource=https%3A%2F%2Ffonts.googleapis.com%2Fcss%3Ffamily%3DArchitects%2BDaughter;fontSize=16;startSize=14;endArrow=open;endSize=14;sourcePerimeterSpacing=8;targetPerimeterSpacing=8;entryX=0.372;entryY=-0.02;entryDx=0;entryDy=0;entryPerimeter=0;" edge="1" parent="1" source="Ns6PyetZf498ZepUySWi-5" target="Ns6PyetZf498ZepUySWi-7">
          <mxGeometry relative="1" as="geometry">
            <mxPoint x="-660" y="424.66666666666674" as="targetPoint" />
          </mxGeometry>
        </mxCell>
        <mxCell id="Ns6PyetZf498ZepUySWi-5" value="Cliente" style="rounded=0;whiteSpace=wrap;html=1;hachureGap=4;fontFamily=Verdana;sketch=1;curveFitting=1;jiggle=2;fillColor=#e1d5e7;strokeColor=#9673a6;fontColor=#FFFFFF;fontStyle=1;fontSize=22;" vertex="1" parent="1">
          <mxGeometry x="-782" y="-40" width="244" height="127" as="geometry" />
        </mxCell>
        <mxCell id="Ns6PyetZf498ZepUySWi-6" value="CriarCadastro" style="rounded=0;whiteSpace=wrap;html=1;hachureGap=4;fontFamily=Verdana;sketch=1;curveFitting=1;jiggle=2;fillColor=#e1d5e7;strokeColor=#9673a6;fontColor=#FFFFFF;fontStyle=1;fontSize=22;" vertex="1" parent="1">
          <mxGeometry x="-447" y="-91" width="244" height="127" as="geometry" />
        </mxCell>
        <mxCell id="Ns6PyetZf498ZepUySWi-7" value="AtualizarCadastro" style="rounded=0;whiteSpace=wrap;html=1;hachureGap=4;fontFamily=Verdana;sketch=1;curveFitting=1;jiggle=2;fillColor=#e1d5e7;strokeColor=#9673a6;fontColor=#FFFFFF;fontStyle=1;fontSize=22;" vertex="1" parent="1">
          <mxGeometry x="-681" y="182" width="335" height="139" as="geometry" />
        </mxCell>
        <mxCell id="bnTnBnJD_OC0jbEWEdFl-1" value="" style="edgeStyle=none;curved=1;rounded=0;sketch=1;hachureGap=4;jiggle=2;curveFitting=1;orthogonalLoop=1;jettySize=auto;html=1;fontFamily=Architects Daughter;fontSource=https%3A%2F%2Ffonts.googleapis.com%2Fcss%3Ffamily%3DArchitects%2BDaughter;fontSize=16;startSize=14;endArrow=open;endSize=14;sourcePerimeterSpacing=8;targetPerimeterSpacing=8;" edge="1" parent="1" source="bnTnBnJD_OC0jbEWEdFl-5" target="bnTnBnJD_OC0jbEWEdFl-6">
          <mxGeometry relative="1" as="geometry" />
        </mxCell>
        <mxCell id="bnTnBnJD_OC0jbEWEdFl-2" value="" style="edgeStyle=none;curved=1;rounded=0;sketch=1;hachureGap=4;jiggle=2;curveFitting=1;orthogonalLoop=1;jettySize=auto;html=1;fontFamily=Architects Daughter;fontSource=https%3A%2F%2Ffonts.googleapis.com%2Fcss%3Ffamily%3DArchitects%2BDaughter;fontSize=16;startSize=14;endArrow=open;endSize=14;sourcePerimeterSpacing=8;targetPerimeterSpacing=8;" edge="1" parent="1" source="bnTnBnJD_OC0jbEWEdFl-5" target="bnTnBnJD_OC0jbEWEdFl-6">
          <mxGeometry relative="1" as="geometry" />
        </mxCell>
        <mxCell id="bnTnBnJD_OC0jbEWEdFl-3" value="" style="edgeStyle=none;curved=1;rounded=0;sketch=1;hachureGap=4;jiggle=2;curveFitting=1;orthogonalLoop=1;jettySize=auto;html=1;fontFamily=Architects Daughter;fontSource=https%3A%2F%2Ffonts.googleapis.com%2Fcss%3Ffamily%3DArchitects%2BDaughter;fontSize=16;startSize=14;endArrow=open;endSize=14;sourcePerimeterSpacing=8;targetPerimeterSpacing=8;" edge="1" parent="1" source="bnTnBnJD_OC0jbEWEdFl-5" target="bnTnBnJD_OC0jbEWEdFl-6">
          <mxGeometry relative="1" as="geometry" />
        </mxCell>
        <mxCell id="bnTnBnJD_OC0jbEWEdFl-5" value="Ingresso" style="rounded=0;whiteSpace=wrap;html=1;hachureGap=4;fontFamily=Verdana;sketch=1;curveFitting=1;jiggle=2;fillColor=#e1d5e7;strokeColor=#9673a6;fontColor=#FFFFFF;fontStyle=1;fontSize=22;" vertex="1" parent="1">
          <mxGeometry x="1054" y="218" width="244" height="127" as="geometry" />
        </mxCell>
        <mxCell id="bnTnBnJD_OC0jbEWEdFl-6" value="CriarIngresso" style="rounded=0;whiteSpace=wrap;html=1;hachureGap=4;fontFamily=Verdana;sketch=1;curveFitting=1;jiggle=2;fillColor=#e1d5e7;strokeColor=#9673a6;fontColor=#FFFFFF;fontStyle=1;fontSize=22;" vertex="1" parent="1">
          <mxGeometry x="1387" y="218" width="244" height="127" as="geometry" />
        </mxCell>
      </root>
    </mxGraphModel>
  </diagram>
  <diagram id="2mnEkam1YsxgOpbonI_A" name="Página-3">
    <mxGraphModel dx="1488" dy="794" grid="0" gridSize="10" guides="1" tooltips="1" connect="1" arrows="1" fold="1" page="1" pageScale="1" pageWidth="850" pageHeight="1100" math="0" shadow="0">
      <root>
        <mxCell id="0" />
        <mxCell id="1" parent="0" />
      </root>
    </mxGraphModel>
  </diagram>
</mxfile>
